<svg width="18" height="19" viewBox="0 0 18 19" fill="none" xmlns="http://www.w3.org/2000/svg">
<path fill-rule="evenodd" clip-rule="evenodd" d="M13 0.5H5C2.23858 0.5 0 2.73858 0 5.5V13.5C0 16.2614 2.23858 18.5 5 18.5H13C15.7614 18.5 18 16.2614 18 13.5V5.5C18 2.73858 15.7614 0.5 13 0.5ZM16.25 13.5C16.2445 15.2926 14.7926 16.7445 13 16.75H5C3.20735 16.7445 1.75549 15.2926 1.75 13.5V5.5C1.75549 3.70735 3.20735 2.25549 5 2.25H13C14.7926 2.25549 16.2445 3.70735 16.25 5.5V13.5ZM13.75 5.75C14.3023 5.75 14.75 5.30228 14.75 4.75C14.75 4.19772 14.3023 3.75 13.75 3.75C13.1977 3.75 12.75 4.19772 12.75 4.75C12.75 5.30228 13.1977 5.75 13.75 5.75ZM9 5C6.51472 5 4.5 7.01472 4.5 9.5C4.5 11.9853 6.51472 14 9 14C11.4853 14 13.5 11.9853 13.5 9.5C13.5027 8.3057 13.0294 7.15957 12.1849 6.31508C11.3404 5.47059 10.1943 4.99734 9 5ZM6.25 9.5C6.25 11.0188 7.4812 12.25 9 12.25C10.5188 12.25 11.75 11.0188 11.75 9.5C11.75 7.9812 10.5188 6.75 9 6.75C7.4812 6.75 6.25 7.9812 6.25 9.5Z" fill="#FC4308"/>
</svg>
