<svg width="24" height="25" viewBox="0 0 24 25" fill="none" xmlns="http://www.w3.org/2000/svg">
<path fill-rule="evenodd" clip-rule="evenodd" d="M5 3.5H19C20.1046 3.5 21 4.39543 21 5.5V19.5C21 20.6046 20.1046 21.5 19 21.5H5C3.89543 21.5 3 20.6046 3 19.5V5.5C3 4.39543 3.89543 3.5 5 3.5ZM8 18.5C8.27614 18.5 8.5 18.2761 8.5 18V11C8.5 10.7239 8.27614 10.5 8 10.5H6.5C6.22386 10.5 6 10.7239 6 11V18C6 18.2761 6.22386 18.5 6.5 18.5H8ZM7.25 9.5C6.42157 9.5 5.75 8.82843 5.75 8C5.75 7.17157 6.42157 6.5 7.25 6.5C8.07843 6.5 8.75 7.17157 8.75 8C8.75 8.82843 8.07843 9.5 7.25 9.5ZM17.5 18.5C17.7761 18.5 18 18.2761 18 18V13.4C18.0325 11.8108 16.8576 10.4545 15.28 10.26C14.177 10.1593 13.1083 10.6744 12.5 11.6V11C12.5 10.7239 12.2761 10.5 12 10.5H10.5C10.2239 10.5 10 10.7239 10 11V18C10 18.2761 10.2239 18.5 10.5 18.5H12C12.2761 18.5 12.5 18.2761 12.5 18V14.25C12.5 13.4216 13.1716 12.75 14 12.75C14.8284 12.75 15.5 13.4216 15.5 14.25V18C15.5 18.2761 15.7239 18.5 16 18.5H17.5Z" fill="#FC4308"/>
</svg>
