<svg width="24" height="25" viewBox="0 0 24 25" fill="none" xmlns="http://www.w3.org/2000/svg">
<path d="M20.9737 7.0675C20.5093 7.68702 19.9479 8.22743 19.3112 8.66786C19.3112 8.82969 19.3112 8.99152 19.3112 9.16235C19.3163 12.1012 18.1424 14.9192 16.0527 16.9846C13.9629 19.05 11.1321 20.19 8.19491 20.149C6.49685 20.1547 4.82053 19.767 3.29728 19.0162C3.21514 18.9803 3.16217 18.8991 3.16248 18.8094V18.7105C3.16248 18.5814 3.26709 18.4768 3.39613 18.4768C5.06528 18.4217 6.67488 17.843 7.9972 16.8225C6.48639 16.792 5.12705 15.897 4.50146 14.5208C4.46987 14.4457 4.4797 14.3594 4.52743 14.2933C4.57515 14.2272 4.65386 14.1908 4.73511 14.1972C5.19428 14.2433 5.65804 14.2006 6.10106 14.0713C4.43325 13.7251 3.18007 12.3405 3.00072 10.6458C2.99435 10.5645 3.03078 10.4858 3.09686 10.438C3.16293 10.3903 3.2491 10.3804 3.32424 10.4121C3.7718 10.6096 4.25495 10.7136 4.7441 10.7177C3.2827 9.75856 2.65147 7.93415 3.20741 6.27632C3.2648 6.11523 3.40267 5.99622 3.57036 5.96304C3.73804 5.92985 3.91082 5.98738 4.02518 6.11449C5.99725 8.21335 8.7069 9.46406 11.5828 9.60289C11.5092 9.30895 11.473 9.00686 11.475 8.70382C11.5019 7.11482 12.4851 5.69931 13.9643 5.11997C15.4434 4.54064 17.1258 4.91213 18.2239 6.06054C18.9723 5.91795 19.6959 5.66655 20.3716 5.31431C20.4211 5.28341 20.4839 5.28341 20.5334 5.31431C20.5643 5.36383 20.5643 5.42662 20.5334 5.47614C20.2061 6.22562 19.6532 6.85422 18.9518 7.27429C19.566 7.20306 20.1694 7.05817 20.7491 6.84274C20.7979 6.80952 20.862 6.80952 20.9108 6.84274C20.9517 6.86144 20.9823 6.89721 20.9944 6.94052C21.0065 6.98383 20.9989 7.03028 20.9737 7.0675Z" fill="#FC4308"/>
</svg>
